<?xml version="1.0" encoding="utf-8"?>
<!-- Generator: Adobe Illustrator 18.1.1, SVG Export Plug-In . SVG Version: 6.00 Build 0)  -->
<!DOCTYPE svg PUBLIC "-//W3C//DTD SVG 1.1//EN" "http://www.w3.org/Graphics/SVG/1.1/DTD/svg11.dtd">
<svg version="1.1" id="_x32_" xmlns="http://www.w3.org/2000/svg" xmlns:xlink="http://www.w3.org/1999/xlink" x="0px" y="0px"
	 viewBox="0 0 512 512" style="enable-background:new 0 0 512 512;" xml:space="preserve">
<style type="text/css">
	.st0{fill:#4B4B4B;}
</style>
<g>
	<path class="st0" d="M256,0C114.605,0.015,0.015,114.594,0,256C0.015,397.391,114.605,511.985,256,512
		c141.395-0.015,255.985-114.609,256-256C511.985,114.594,397.395,0.015,256,0z M411.099,100.904
		c12.12,12.126,22.795,25.66,31.824,40.315h-40.135H322.27l-40.259-69.723l-20.027-34.689
		C320.22,38.378,372.666,62.496,411.099,100.904z M180.86,340.745h-71.642l35.823-62.047L180.86,340.745z M109.219,171.255h71.642
		l-35.818,62.047L109.219,171.255z M158.148,256l48.929-84.745h97.859L353.859,256l-48.922,84.745h-97.859L158.148,256z
		 M366.973,278.698l35.815,62.047h-71.642L366.973,278.698z M331.146,171.255h71.642l-35.815,62.047L331.146,171.255z
		 M291.819,148.55h-71.638L256,86.503L291.819,148.55z M100.9,100.904c38.434-38.408,90.878-62.526,149.114-64.097l-20.026,34.689
		l-40.244,69.723h-80.526H69.076C78.106,126.564,88.78,113.03,100.9,100.904z M36.657,256c0.008-37.899,9.58-73.471,26.456-104.54
		l20.094,34.802L123.467,256l-40.259,69.723l-20.094,34.801C46.236,329.463,36.664,293.891,36.657,256z M100.9,411.096
		c-12.12-12.126-22.802-25.667-31.824-40.33h40.143h80.526l40.244,69.738l20.026,34.689
		C191.786,473.622,139.334,449.504,100.9,411.096z M220.181,363.434h71.638L256,425.482L220.181,363.434z M411.099,411.096
		c-38.434,38.408-90.886,62.526-149.115,64.097l20.027-34.689l40.259-69.738h80.518h40.135
		C433.902,385.429,423.219,398.97,411.099,411.096z M428.796,325.723L388.541,256l40.255-69.738l20.09-34.794
		c16.878,31.061,26.45,66.641,26.458,104.532c-0.008,37.884-9.58,73.456-26.458,104.517L428.796,325.723z"/>
</g>
</svg>
